<svg width="50" height="50" viewBox="0 0 50 50" fill="none" xmlns="http://www.w3.org/2000/svg">
<path d="M48.3277 35.6352V33.3352H49.1609C49.3908 33.3369 49.6109 33.2433 49.7692 33.0769C49.9107 32.9186 49.9909 32.7144 49.9941 32.502L48.5026 4.17195C48.3606 1.87892 46.459 0.0916138 44.1615 0.0916138C41.864 0.0916138 39.9624 1.87892 39.8204 4.17195L38.3288 32.502C38.3219 32.729 38.4025 32.9495 38.5538 33.1188C38.719 33.2697 38.9383 33.3478 39.1621 33.3352H39.9953V35.6352L38.4204 38.7932C38.3016 39.0287 38.3016 39.307 38.4204 39.543L43.4198 49.5418C43.4605 49.6338 43.5203 49.716 43.5947 49.7835C43.692 49.8734 43.8092 49.9393 43.9365 49.9751H44.3946C44.5224 49.9393 44.6395 49.8734 44.7364 49.7835C44.8112 49.716 44.8706 49.6338 44.9113 49.5418L49.9107 39.543C50.0295 39.307 50.0295 39.0287 49.9107 38.7932L48.3277 35.6352ZM40.0368 31.6688L40.3871 25.0029H47.9359L48.3277 31.6688H40.0368ZM41.4868 4.21386C41.4868 2.73657 42.6842 1.53879 44.1615 1.53879C45.6388 1.53879 46.8362 2.73657 46.8362 4.21386L47.8443 23.3783H40.4787L40.5702 21.7118H45.2112C45.6717 21.7118 46.0444 21.3387 46.0444 20.8786C46.0444 20.418 45.6717 20.0454 45.2112 20.0454H40.6536L41.4868 4.21386ZM46.6612 33.3352V35.0017H41.6618V33.3352H46.6612ZM44.9947 45.634V40.0011H45.828C46.2881 40.0011 46.6612 39.628 46.6612 39.1679C46.6612 38.7077 46.2881 38.3347 45.828 38.3347H42.495C42.0349 38.3347 41.6618 38.7077 41.6618 39.1679C41.6618 39.628 42.0349 40.0011 42.495 40.0011H43.3283V45.634L40.0954 39.1679L41.3453 36.6682H46.9777L48.2276 39.1679L44.9947 45.634Z" fill="#FFBB01"/>
<path d="M28.3301 10.8379C28.7902 10.8379 29.1633 10.4648 29.1633 10.0046C29.1633 9.54447 28.7902 9.17139 28.3301 9.17139H6.66594C6.20579 9.17139 5.8327 9.54447 5.8327 10.0046V13.3376C5.8327 13.7977 6.20579 14.1708 6.66594 14.1708H28.3301C28.7902 14.1708 29.1633 13.7977 29.1633 13.3376C29.1633 12.8774 28.7902 12.5043 28.3301 12.5043H7.49917V10.8379H28.3301Z" fill="#FFBB01"/>
<path d="M29.1633 18.337C29.1633 17.8768 28.7902 17.5037 28.3301 17.5037H9.99889C9.53873 17.5037 9.16565 17.8768 9.16565 18.337C9.16565 18.7971 9.53873 19.1702 9.99889 19.1702H28.3301C28.7902 19.1702 29.1633 18.7971 29.1633 18.337Z" fill="#FFBB01"/>
<path d="M4.99945 22.5031C4.99945 22.9633 5.37254 23.3363 5.83269 23.3363H19.1645C19.6246 23.3363 19.9977 22.9633 19.9977 22.5031C19.9977 22.0429 19.6246 21.6699 19.1645 21.6699H5.83269C5.37254 21.6699 4.99945 22.0429 4.99945 22.5031Z" fill="#FFBB01"/>
<path d="M24.1639 21.6699C23.7038 21.6699 23.3307 22.0429 23.3307 22.5031C23.3307 22.9633 23.7038 23.3363 24.1639 23.3363H27.4969C27.957 23.3363 28.3301 22.9633 28.3301 22.5031C28.3301 22.0429 27.957 21.6699 27.4969 21.6699H24.1639Z" fill="#FFBB01"/>
<path d="M16.6648 26.6693C16.6648 26.2091 16.2917 25.8361 15.8315 25.8361H5.83269C5.37254 25.8361 4.99945 26.2091 4.99945 26.6693C4.99945 27.1294 5.37254 27.5025 5.83269 27.5025H15.8315C16.2917 27.5025 16.6648 27.1294 16.6648 26.6693Z" fill="#FFBB01"/>
<path d="M15.8315 30.8356C15.8315 30.3754 15.4584 30.0023 14.9983 30.0023H5.83269C5.37254 30.0023 4.99945 30.3754 4.99945 30.8356C4.99945 31.2957 5.37254 31.6688 5.83269 31.6688H14.9983C15.4584 31.6688 15.8315 31.2957 15.8315 30.8356Z" fill="#FFBB01"/>
<path d="M5.83269 34.1685C5.37254 34.1685 4.99945 34.5415 4.99945 35.0017C4.99945 35.4618 5.37254 35.8349 5.83269 35.8349H11.6653C12.1255 35.8349 12.4986 35.4618 12.4986 35.0017C12.4986 34.5415 12.1255 34.1685 11.6653 34.1685H5.83269Z" fill="#FFBB01"/>
<path d="M32.4962 0.0057373H2.49971C1.11925 0.0057373 0 1.12499 0 2.50545V40.8343C0 42.2148 1.11925 43.334 2.49971 43.334H16.6647C17.1249 43.334 17.498 42.961 17.498 42.5008C17.498 42.0406 17.1249 41.6676 16.6647 41.6676H2.49971C2.03956 41.6676 1.66647 41.2945 1.66647 40.8343V7.50487H33.3295V40.8343C33.3295 41.2945 32.9564 41.6676 32.4962 41.6676H29.9965C29.5364 41.6676 29.1633 42.0406 29.1633 42.5008C29.1633 42.961 29.5364 43.334 29.9965 43.334H32.4962C33.8767 43.334 34.9959 42.2148 34.9959 40.8343V2.50545C34.9959 1.12499 33.8767 0.0057373 32.4962 0.0057373ZM1.66647 5.83839V2.50545C1.66647 2.0453 2.03956 1.67221 2.49971 1.67221H32.4962C32.9564 1.67221 33.3295 2.0453 33.3295 2.50545V5.83839H1.66647Z" fill="#FFBB01"/>
<path d="M23.3306 30.8354C21.9501 30.8354 20.8309 31.9547 20.8309 33.3352C20.8309 34.7156 21.9501 35.8349 23.3306 35.8349C24.711 35.8349 25.8303 34.7156 25.8303 33.3352C25.8303 31.9547 24.711 30.8354 23.3306 30.8354ZM23.3306 34.1684C22.8704 34.1684 22.4973 33.7953 22.4973 33.3352C22.4973 32.875 22.8704 32.5019 23.3306 32.5019C23.7907 32.5019 24.1638 32.875 24.1638 33.3352C24.1638 33.7953 23.7907 34.1684 23.3306 34.1684Z" fill="#FFBB01"/>
<path d="M29.9965 33.3352C29.9953 32.4092 29.4826 31.5592 28.6632 31.1272C28.9358 30.2419 28.6966 29.2788 28.042 28.6238C27.3869 27.9692 26.4239 27.7299 25.5386 28.0025C25.1049 27.1856 24.2558 26.6746 23.3306 26.6746C22.4054 26.6746 21.5563 27.1856 21.1226 28.0025C20.2373 27.7299 19.2743 27.9692 18.6192 28.6238C17.9646 29.2788 17.7254 30.2419 17.998 31.1272C17.1806 31.5609 16.67 32.41 16.67 33.3352C16.67 34.2604 17.1806 35.1099 17.998 35.5432C17.7254 36.4264 17.9626 37.3878 18.6143 38.0429C18.7771 38.2052 18.9622 38.3427 19.1644 38.4514V49.1667C19.166 49.5031 19.3699 49.8054 19.6811 49.9332C19.9911 50.0638 20.3496 49.9946 20.5892 49.7582L23.3306 47.0087L26.072 49.7582C26.229 49.9145 26.4422 50.0011 26.6635 49.9999C26.773 50.0028 26.8812 49.98 26.9801 49.9332C27.2913 49.8054 27.4951 49.5031 27.4968 49.1667V38.4595C27.699 38.3509 27.8841 38.2133 28.0468 38.0514C28.6986 37.396 28.9358 36.435 28.6632 35.5517C29.4851 35.118 29.9985 34.2644 29.9965 33.3352ZM23.9222 45.2422C23.7659 45.0843 23.5527 44.9956 23.3306 44.9956C23.1084 44.9956 22.8953 45.0843 22.739 45.2422L20.8309 47.1584V38.7431L21.1226 38.6678C21.5563 39.4852 22.4054 39.9958 23.3306 39.9958C24.2558 39.9958 25.1049 39.4852 25.5386 38.6678L25.8303 38.7431V47.1584L23.9222 45.2422ZM27.4968 34.1684H27.3552C27.0159 34.1668 26.7091 34.371 26.5801 34.6851C26.452 34.9972 26.5244 35.3556 26.7636 35.5932L26.8637 35.6933C27.1867 36.0184 27.1867 36.5432 26.8637 36.8683C26.7718 36.9647 26.657 37.0363 26.5301 37.0766H26.4052C26.1428 37.1173 25.8767 37.0306 25.6887 36.8431L25.5886 36.743C25.3502 36.5029 24.9901 36.4305 24.6777 36.5603C24.3648 36.6901 24.1618 36.9964 24.1638 37.3349V37.5014C24.1638 37.9615 23.7907 38.3346 23.3306 38.3346C22.8704 38.3346 22.4974 37.9615 22.4974 37.5014V37.3598C22.499 37.0205 22.2947 36.7137 21.9806 36.5847C21.8802 36.5448 21.7723 36.5253 21.6641 36.5265C21.4428 36.5253 21.2296 36.6124 21.0725 36.7682L20.9725 36.8683C20.7845 37.0558 20.5184 37.1425 20.256 37.1014H20.1311C20.0041 37.0615 19.8894 36.9899 19.7975 36.8931C19.4744 36.568 19.4744 36.0432 19.7975 35.7181L19.9061 35.6184C20.1453 35.3804 20.2177 35.022 20.0892 34.7099C19.9602 34.3962 19.6538 34.1916 19.3145 34.1936H19.1644C18.7043 34.1936 18.3312 33.8205 18.3312 33.3604C18.3312 32.8998 18.7043 32.5272 19.1644 32.5272H19.306C19.6453 32.5288 19.9521 32.3241 20.081 32.0105C20.2092 31.6984 20.1368 31.34 19.8976 31.1019L19.7975 31.0023C19.4708 30.6776 19.4691 30.1499 19.7934 29.8232C20.1181 29.4965 20.6458 29.4945 20.9725 29.8191L21.0725 29.9274C21.3102 30.1666 21.669 30.239 21.9806 30.1104C22.2947 29.9815 22.499 29.6751 22.4974 29.3358V29.169C22.4974 28.7088 22.8704 28.3357 23.3306 28.3357C23.7907 28.3357 24.1638 28.7088 24.1638 29.169V29.3106C24.1622 29.6503 24.3664 29.9567 24.6805 30.0856C24.9922 30.2138 25.351 30.1418 25.5886 29.9021L25.6887 29.8025C26.013 29.4758 26.5411 29.4737 26.8678 29.798C27.1945 30.1226 27.1961 30.6503 26.8718 30.977L26.7636 31.0771C26.5244 31.3147 26.452 31.6736 26.5801 31.9852C26.7091 32.2993 27.0159 32.5036 27.3552 32.5019H27.4968C27.9569 32.5019 28.33 32.875 28.33 33.3352C28.33 33.7953 27.9569 34.1684 27.4968 34.1684Z" fill="#FFBB01"/>
</svg>
