<?xml version="1.0" encoding="utf-8"?>
<!-- Generator: Adobe Illustrator 22.0.1, SVG Export Plug-In . SVG Version: 6.00 Build 0)  -->
<svg version="1.1" id="Слой_1" xmlns="http://www.w3.org/2000/svg" xmlns:xlink="http://www.w3.org/1999/xlink" x="0px" y="0px"
	 viewBox="0 0 792 612" style="enable-background:new 0 0 792 612;" xml:space="preserve">
<style type="text/css">
	.st0{fill:url(#SVGID_1_);}
	.st1{fill:url(#SVGID_2_);}
	.st2{fill:url(#SVGID_3_);}
	.st3{fill:url(#SVGID_4_);}
	.st4{fill:url(#SVGID_5_);}
	.st5{fill:url(#SVGID_6_);}
	.st6{fill:url(#SVGID_7_);}
	.st7{fill:url(#SVGID_8_);}
	.st8{fill:url(#SVGID_9_);}
	.st9{fill:url(#SVGID_10_);}
</style>
<g>
	<g>
		
			<linearGradient id="SVGID_1_" gradientUnits="userSpaceOnUse" x1="443.817" y1="482.3456" x2="498.4704" y2="482.3456" gradientTransform="matrix(1 0 0 -1 0 610.7688)">
			<stop  offset="5.618000e-03" style="stop-color:#EFC981"/>
			<stop  offset="0.1854" style="stop-color:#E6C081"/>
			<stop  offset="0.5955" style="stop-color:#C58511"/>
			<stop  offset="0.8106" style="stop-color:#E5B76D"/>
			<stop  offset="0.8708" style="stop-color:#EEC687"/>
			<stop  offset="1" style="stop-color:#F2E4CE"/>
		</linearGradient>
		<polygon class="st0" points="498.5,142.2 488.6,115.1 443.8,114.7 462.2,131.1 479,131.1 		"/>
		
			<linearGradient id="SVGID_2_" gradientUnits="userSpaceOnUse" x1="530.1943" y1="481.5984" x2="551.4108" y2="481.5984" gradientTransform="matrix(1 0 0 -1 0 610.7688)">
			<stop  offset="5.618000e-03" style="stop-color:#EFC981"/>
			<stop  offset="0.1854" style="stop-color:#E6C081"/>
			<stop  offset="0.5955" style="stop-color:#C58511"/>
			<stop  offset="0.8106" style="stop-color:#E5B76D"/>
			<stop  offset="0.8708" style="stop-color:#EEC687"/>
			<stop  offset="1" style="stop-color:#F2E4CE"/>
		</linearGradient>
		<path class="st1" d="M551.4,118.7c-7,0-14.1-0.2-21.1-0.2c7,7,14.1,14.3,21.1,21.3C551.4,132.8,551.4,125.8,551.4,118.7z"/>
		
			<linearGradient id="SVGID_3_" gradientUnits="userSpaceOnUse" x1="512.878" y1="342.5098" x2="545.5419" y2="342.5098" gradientTransform="matrix(1 0 0 -1 0 610.7688)">
			<stop  offset="5.618000e-03" style="stop-color:#EFC981"/>
			<stop  offset="0.1854" style="stop-color:#E6C081"/>
			<stop  offset="0.5955" style="stop-color:#C58511"/>
			<stop  offset="0.8106" style="stop-color:#E5B76D"/>
			<stop  offset="0.8708" style="stop-color:#EEC687"/>
			<stop  offset="1" style="stop-color:#F2E4CE"/>
		</linearGradient>
		<path class="st2" d="M528.6,279.3c5.6-7.3,11.3-14.5,16.9-21.8c-10.9,0-21.8-0.2-32.7-0.2C518.1,264.5,523.4,272,528.6,279.3z"/>
		
			<linearGradient id="SVGID_4_" gradientUnits="userSpaceOnUse" x1="237.7994" y1="513.5151" x2="414.5689" y2="513.5151" gradientTransform="matrix(1 0 0 -1 0 610.7688)">
			<stop  offset="5.618000e-03" style="stop-color:#EFC981"/>
			<stop  offset="0.1854" style="stop-color:#E6C081"/>
			<stop  offset="0.5955" style="stop-color:#C58511"/>
			<stop  offset="0.8106" style="stop-color:#E5B76D"/>
			<stop  offset="0.8708" style="stop-color:#EEC687"/>
			<stop  offset="1" style="stop-color:#F2E4CE"/>
		</linearGradient>
		<path class="st3" d="M414.6,85.8c-58.9,16.2-117.8,32.2-176.8,48.5c29-24.8,58.1-49.5,87.3-74.1c19.6,0,39.3,0,58.7,0
			C394.1,68.8,404.3,77.3,414.6,85.8z"/>
		
			<linearGradient id="SVGID_5_" gradientUnits="userSpaceOnUse" x1="184" y1="336.3186" x2="390.4445" y2="336.3186" gradientTransform="matrix(1 0 0 -1 0 610.7688)">
			<stop  offset="5.618000e-03" style="stop-color:#EFC981"/>
			<stop  offset="0.1854" style="stop-color:#E6C081"/>
			<stop  offset="0.5955" style="stop-color:#C58511"/>
			<stop  offset="0.8106" style="stop-color:#E5B76D"/>
			<stop  offset="0.8708" style="stop-color:#EEC687"/>
			<stop  offset="1" style="stop-color:#F2E4CE"/>
		</linearGradient>
		<path class="st4" d="M390.4,127.2c-48.7,13.7-97.4,27.3-146,41c-20.1,37.8-40.3,75.6-60.4,113.1c12.6-6,25.2-12,38-17.9
			c0.4,32.9,0.6,66,1.1,98.8c22.6,19.9,45.5,39.7,68.1,59.4c-7-40.6-14.1-81.3-20.9-121.9C310.2,242.3,350.3,184.7,390.4,127.2z"/>
		
			<linearGradient id="SVGID_6_" gradientUnits="userSpaceOnUse" x1="324.2627" y1="123.576" x2="443.39" y2="123.576" gradientTransform="matrix(1 0 0 -1 0 610.7688)">
			<stop  offset="5.618000e-03" style="stop-color:#EFC981"/>
			<stop  offset="0.1854" style="stop-color:#E6C081"/>
			<stop  offset="0.5955" style="stop-color:#C58511"/>
			<stop  offset="0.8106" style="stop-color:#E5B76D"/>
			<stop  offset="0.8708" style="stop-color:#EEC687"/>
			<stop  offset="1" style="stop-color:#F2E4CE"/>
		</linearGradient>
		<path class="st5" d="M324.3,392.6c6,29,11.7,57.9,17.7,86.9c20.1,24.1,39.9,48.2,60,72.6c4.3,9.8,8.3,19.9,12.6,29.7
			c9.6-17.7,19.2-35.4,29-52.9C403.7,483.4,364,437.9,324.3,392.6z"/>
		
			<linearGradient id="SVGID_7_" gradientUnits="userSpaceOnUse" x1="317.6445" y1="248.8945" x2="523.6195" y2="248.8945" gradientTransform="matrix(1 0 0 -1 0 610.7688)">
			<stop  offset="5.618000e-03" style="stop-color:#EFC981"/>
			<stop  offset="0.1854" style="stop-color:#E6C081"/>
			<stop  offset="0.5955" style="stop-color:#C58511"/>
			<stop  offset="0.8106" style="stop-color:#E5B76D"/>
			<stop  offset="0.8708" style="stop-color:#EEC687"/>
			<stop  offset="1" style="stop-color:#F2E4CE"/>
		</linearGradient>
		<path class="st6" d="M383.2,314.7c1.7-40.3,3.4-80.7,5.1-120.8c-23.5,40.3-47.2,80.7-70.7,120.8
			c51.9,58.5,103.8,116.8,155.8,175.3c5.8,13.2,11.5,26.7,17.5,39.9c10.9-19.4,21.8-38.9,32.9-58.5
			C476.9,419.3,429.9,367,383.2,314.7z"/>
		
			<linearGradient id="SVGID_8_" gradientUnits="userSpaceOnUse" x1="422.2546" y1="279.4236" x2="574.8998" y2="279.4236" gradientTransform="matrix(1 0 0 -1 0 610.7688)">
			<stop  offset="5.618000e-03" style="stop-color:#EFC981"/>
			<stop  offset="0.1854" style="stop-color:#E6C081"/>
			<stop  offset="0.5955" style="stop-color:#C58511"/>
			<stop  offset="0.8106" style="stop-color:#E5B76D"/>
			<stop  offset="0.8708" style="stop-color:#EEC687"/>
			<stop  offset="1" style="stop-color:#F2E4CE"/>
		</linearGradient>
		<path class="st7" d="M551,428.5c-40.1-42.1-80.5-84.1-120.6-126.2c-2.8-22.6-5.3-45.3-8.1-68.1c50.8,51.7,101.6,103.5,152.6,155.2
			C567,402.4,558.9,415.5,551,428.5z"/>
		
			<linearGradient id="SVGID_9_" gradientUnits="userSpaceOnUse" x1="376.5677" y1="562.9379" x2="492.1391" y2="562.9379" gradientTransform="matrix(1 0 0 -1 0 610.7688)">
			<stop  offset="5.618000e-03" style="stop-color:#EFC981"/>
			<stop  offset="0.1854" style="stop-color:#E6C081"/>
			<stop  offset="0.5955" style="stop-color:#C58511"/>
			<stop  offset="0.8106" style="stop-color:#E5B76D"/>
			<stop  offset="0.8708" style="stop-color:#EEC687"/>
			<stop  offset="1" style="stop-color:#F2E4CE"/>
		</linearGradient>
		<path class="st8" d="M492.3,68.3c-14.3,0.2-28.4,0.4-42.7,0.9c-24.3-12-48.7-23.9-73-35.9c21.6-2.3,43.3-4.5,64.9-6.8
			C458.3,40.4,475.4,54.2,492.3,68.3z"/>
		
			<linearGradient id="SVGID_10_" gradientUnits="userSpaceOnUse" x1="480.9214" y1="406.3432" x2="572.5727" y2="406.3432" gradientTransform="matrix(1 0 0 -1 0 610.7688)">
			<stop  offset="5.618000e-03" style="stop-color:#EFC981"/>
			<stop  offset="0.1854" style="stop-color:#E6C081"/>
			<stop  offset="0.5955" style="stop-color:#C58511"/>
			<stop  offset="0.8106" style="stop-color:#E5B76D"/>
			<stop  offset="0.8708" style="stop-color:#EEC687"/>
			<stop  offset="1" style="stop-color:#F2E4CE"/>
		</linearGradient>
		<path class="st9" d="M572.6,167.4c-14.3,0-28.8,0-43.1,0c5.8,6,11.5,11.7,17.1,17.7c0,6.6,0.2,13.2,0.2,20.1
			c-14.9,7.5-29.9,14.9-45,22.2c-7-3-13.9-6-20.9-8.8c5.1,7.7,10.2,15.2,15.4,22.8c17.3-6.4,34.4-12.8,51.7-19.2
			c6.4,5.1,12.8,10.2,19,15.4c0-7,0.2-14.1,0.2-20.9c-2.6-2.6-5.1-5.1-7.7-7.5c0.2-7.9,0.4-15.6,0.4-23.5c3.2-2.1,6.4-4.1,9.6-6.2
			C570.6,175.3,571.7,171.4,572.6,167.4z"/>
	</g>
</g>
</svg>
