<?xml version="1.0" encoding="utf-8"?>
<!-- Generator: Adobe Illustrator 22.0.1, SVG Export Plug-In . SVG Version: 6.00 Build 0)  -->
<svg version="1.1" id="Слой_1" xmlns="http://www.w3.org/2000/svg" xmlns:xlink="http://www.w3.org/1999/xlink" x="0px" y="0px"
	 viewBox="0 0 141.7 141.7" style="enable-background:new 0 0 141.7 141.7;" xml:space="preserve">
<style type="text/css">
	.st0{fill:#0F1010;stroke:#0F1010;stroke-miterlimit:10;}
	.st1{fill:#FFFFFF;stroke:#0F1010;stroke-miterlimit:10;}
	.st2{fill:none;stroke:#0F1010;stroke-miterlimit:10;}
</style>
<g>
	<path class="st0" d="M62.9,91.7L62.9,91.7c0.6,0.2,0.9,0.9,0.7,1.5l-3.3,8.7c-0.2,0.6-0.9,0.9-1.5,0.7l0,0
		c-0.6-0.2-0.9-0.9-0.7-1.5l3.3-8.7C61.7,91.8,62.3,91.5,62.9,91.7z"/>
	<path class="st0" d="M53.7,85.4L53.7,85.4c0.4,0.5,0.4,1.2-0.1,1.6l-7,6.2c-0.5,0.4-1.2,0.4-1.6-0.1l0,0c-0.4-0.5-0.4-1.2,0.1-1.6
		l7-6.2C52.6,84.9,53.3,84.9,53.7,85.4z"/>
	<path class="st0" d="M49.2,77.6L49.2,77.6c0.2,0.6-0.1,1.3-0.7,1.5l-8.8,3c-0.6,0.2-1.3-0.1-1.5-0.7l0,0c-0.2-0.6,0.1-1.3,0.7-1.5
		l8.8-3C48.4,76.7,49,77,49.2,77.6z"/>
	<path class="st0" d="M48.6,64L48.6,64c-0.2,0.6-0.8,1-1.4,0.8l-9-2.6c-0.6-0.2-1-0.8-0.8-1.4l0,0c0.2-0.6,0.8-1,1.4-0.8l9,2.6
		C48.4,62.7,48.8,63.4,48.6,64z"/>
	<path class="st0" d="M54.2,54.3L54.2,54.3c-0.4,0.5-1.2,0.5-1.6,0l-6.7-6.5c-0.5-0.4-0.5-1.2,0-1.6l0,0c0.4-0.5,1.2-0.5,1.6,0
		l6.7,6.5C54.6,53.1,54.6,53.8,54.2,54.3z"/>
	<path class="st0" d="M61.5,49.1L61.5,49.1c-0.6,0.3-1.3,0-1.5-0.6L56.3,40c-0.3-0.6,0-1.3,0.6-1.5l0,0c0.6-0.3,1.3,0,1.5,0.6
		l3.7,8.5C62.4,48.2,62.1,48.9,61.5,49.1z"/>
	<path class="st0" d="M47.7,70L47.7,70c0,0.6-0.5,1.2-1.2,1.1l-9.3-0.2c-0.6,0-1.2-0.5-1.1-1.2l0,0c0-0.6,0.5-1.2,1.2-1.1l9.3,0.2
		C47.2,68.8,47.7,69.3,47.7,70z"/>
	<path class="st0" d="M51.8,70v0.9c0,0.6-0.5,1.2-1.2,1.2L36.9,72c-0.6,0-1.2-0.5-1.2-1.2v-0.9c0-0.6,0.5-1.2,1.2-1.2l13.7,0.1
		C51.3,68.8,51.8,69.3,51.8,70z"/>
	<g>
		<path class="st0" d="M70.9,16.6c-29.5,0-53.5,24-53.5,53.5s24,53.5,53.5,53.5s53.5-24,53.5-53.5S100.4,16.6,70.9,16.6z
			 M71.1,108.6c-21.3,0-38.5-17.2-38.5-38.5s17.2-38.5,38.5-38.5s38.5,17.2,38.5,38.5S92.4,108.6,71.1,108.6z"/>
		<path class="st0" d="M78.7,48.2c0.6,0.2,1.2-0.1,1.5-0.7l3.1-8.8c0.2-0.6-0.1-1.3-0.7-1.5s-1.3,0.1-1.5,0.7L78,46.7
			C77.8,47.3,78.1,48,78.7,48.2z"/>
		<path class="st0" d="M88,54.3c0.5,0.4,1.2,0.5,1.6,0.1l6.8-6.4c0.5-0.4,0.5-1.1,0.1-1.6s-1.1-0.5-1.6-0.1l-6.8,6.4
			C87.6,53.1,87.6,53.8,88,54.3z"/>
		<path class="st0" d="M92.8,61.9c0.2,0.6,0.9,0.9,1.5,0.7l8.7-3.3c0.6-0.2,0.9-0.9,0.7-1.5c-0.2-0.6-0.9-0.9-1.5-0.7l-8.7,3.3
			C92.9,60.6,92.6,61.3,92.8,61.9z"/>
		<path class="st0" d="M103.6,79l-8.9-2.8c-0.6-0.2-1.3,0.2-1.5,0.8c-0.2,0.6,0.2,1.3,0.8,1.5l8.9,2.8c0.6,0.2,1.3-0.2,1.5-0.8
			C104.6,79.9,104.2,79.2,103.6,79z"/>
		<path class="st0" d="M89,86.6c-0.4-0.4-1.1-0.4-1.6,0s-0.5,1.1,0,1.6l6.5,6.7c0.4,0.4,1.1,0.4,1.6,0c0.4-0.4,0.4-1.1,0-1.6
			L89,86.6z"/>
		<path class="st0" d="M81.4,92.1c-0.2-0.6-0.9-0.8-1.5-0.6c-0.6,0.2-0.9,0.9-0.7,1.5l3.6,8.6c0.2,0.6,0.9,0.8,1.5,0.6
			c0.6-0.2,0.8-0.9,0.6-1.5L81.4,92.1z"/>
		<path class="st0" d="M104.9,68.8H90.8c-0.7,0-1.2,0.6-1.2,1.2v1c0,0.6,0.5,1.1,1.2,1.2h14.1c0.7,0,1.2-0.6,1.2-1.2v-1
			C106.1,69.3,105.5,68.8,104.9,68.8z"/>
		<path class="st0" d="M71.9,88.7h-1c-0.7,0-1.2,0.5-1.2,1.2V94c0,0.1-0.1,0.2-0.1,0.3l-0.1,9.3c0,0.3,0.1,0.6,0.3,0.8
			c0.2,0.5,0.6,0.9,1.1,0.9h1c0.7,0,1.2-0.6,1.2-1.2V89.9C73.1,89.2,72.5,88.7,71.9,88.7z"/>
		<path class="st0" d="M70,52.1h1c0.6,0,1.2-0.5,1.2-1.1l0.4-14.5c0.1-0.5-0.3-1-0.8-1.1c-0.2-0.1-0.4-0.3-0.7-0.3
			c-0.2,0-0.4,0.1-0.6,0.2c-0.6-0.1-1.2,0.5-1.2,1.1l-0.4,14.5C68.8,51.5,69.4,52.1,70,52.1z"/>
		<path class="st0" d="M92.2,46.9c0.9-1.1,0.7-2.8-0.5-3.7c-1.1-0.9-2.8-0.7-3.7,0.5L72.6,64.4l-7-10.6c-0.8-1.3-2.5-1.6-3.7-0.8
			c-1.3,0.8-1.6,2.5-0.8,3.7l8.7,13.2c0.2,0.5,0.5,1,0.9,1.4l0,0c0.9,0.9,2.3,1.1,3.4,0.4c0.8-0.5,1.2-1.3,1.2-2.2L92.2,46.9z"/>
	</g>
	<g>
		<path class="st1" d="M80.5,22.3h-17c-3.6,0-6.5-2.9-6.5-6.5l0,0c0-3.6,2.9-6.5,6.5-6.5h17c3.6,0,6.5,2.9,6.5,6.5l0,0
			C87,19.4,84.1,22.3,80.5,22.3z"/>
		<path class="st1" d="M82.6,16.4H61.8c-1.8,0-3.2-1.5-3.2-3.2l0,0c0-1.8,1.5-3.2,3.2-3.2h20.8c1.8,0,3.3,1.5,3.3,3.2l0,0
			C85.8,14.9,84.4,16.4,82.6,16.4z"/>
		<line class="st2" x1="60.1" y1="16.1" x2="60.2" y2="21.2"/>
		<line class="st2" x1="64.7" y1="16.5" x2="64.7" y2="22"/>
		<line class="st2" x1="71.1" y1="16.6" x2="71.1" y2="21.8"/>
		<line class="st2" x1="75.2" y1="16.6" x2="75.2" y2="21.8"/>
		<line class="st2" x1="80.2" y1="16.3" x2="80.2" y2="22"/>
		<line class="st2" x1="85.8" y1="13.7" x2="85.8" y2="19.6"/>
		<line class="st2" x1="84.2" y1="16.4" x2="84.2" y2="20.9"/>
		<line class="st2" x1="58.6" y1="14.1" x2="58.6" y2="19.7"/>
	</g>
</g>
</svg>
